 
http://www.imdb.com/title/tt2202385/
Action, Crime, Drama


Format : AVI
Format/Info : Audio Video Interleave
File size : 1.19 GiB
Duration : 1h 42mn
Overall bit rate : 1 660 Kbps
Writing application : VirtualDubMod 1.5.10.2 (build 2540/release)
Writing library : VirtualDubMod build 2540/release

Video
ID : 0
Format : MPEG-4 Visual
Format profile : Advanced Simple@L5
Format settings, BVOP : 1
Format settings, QPel : No
Format settings, GMC : No warppoints
Format settings, Matrix : Default (H.263)
Codec ID : XVID
Codec ID/Hint : XviD
Duration : 1h 42mn
Bit rate : 1 491 Kbps
Width : 640 pixels
Height : 360 pixels
Display aspect ratio : 16:9
Frame rate : 24.000 fps
Color space : YUV
Chroma subsampling : 4:2:0
Bit depth : 8 bits
Scan type : Progressive
Compression mode : Lossy
Bits/(Pixel*Frame) : 0.270
Stream size : 1.07 GiB (90%)
Writing library : XviD 1.2.1 (UTC 2008-12-04)

Audio
ID : 1
Format : AC-3
Format/Info : Audio Coding 3
Mode extension : CM (complete main)
Codec ID : 2000
Duration : 1h 42mn
Bit rate mode : Constant
Bit rate : 160 Kbps
Channel(s) : 2 channels
Channel positions : Front: L R
Sampling rate : 48.0 KHz
Bit depth : 16 bits
Compression mode : Lossy
Stream size : 117 MiB (10%)
Alignment : Aligned on interleaves
Interleave, duration : 42 ms (1.00 video frame)
Interleave, preload duration : 512 ms


 
http://lookpic.com/O/i2/1380/KIwIcS0y.png
 
http://lookpic.com/O/i2/555/6GMb4gCZ.png
 
http://lookpic.com/O/i2/866/hAdeXV2S.png
 
http://lookpic.com/O/i2/1407/e6mGmGYB.png


Make sure its a real Feel-Free release @ http://extratorrent
Thanks to all who promotes release Feel-Free !!!